<svg width="171" height="28" viewBox="0 0 171 28" fill="none" xmlns="http://www.w3.org/2000/svg">
<path d="M38.8456 25.9672C33.635 25.9672 28.3516 22.3234 28.3516 16.7485C28.3516 11.1736 33.635 7.49337 38.8456 7.49337C44.0561 7.49337 49.3395 11.1736 49.3395 16.7485C49.3395 22.3234 44.0561 25.9672 38.8456 25.9672ZM32.1046 16.7485C32.1046 20.1007 35.3111 22.4692 38.8456 22.4692C42.2342 22.4692 45.5865 20.1372 45.5865 16.7485C45.5865 13.2505 42.2707 10.9549 38.8456 10.9549C35.3111 10.9549 32.1046 13.2869 32.1046 16.7485Z" fill="white" fill-opacity="0.83"/>
<path d="M51.8367 0.460938H55.5897V10.2626C56.0634 9.93468 58.2132 7.45693 62.2942 7.45693C68.4157 7.45693 72.8246 11.6472 72.8246 16.6027C72.8246 21.8133 68.0878 25.9307 62.2213 25.9307C56.61 25.9307 51.8731 22.1777 51.8731 17.0036H51.8367V0.460938ZM62.3306 10.7727C58.5047 10.7727 55.5897 13.3598 55.5897 16.8578C55.5897 20.21 58.5776 22.4327 62.2942 22.4327C66.1566 22.4327 69.108 20.1007 69.108 16.7121C69.108 13.542 66.2295 10.7727 62.3306 10.7727Z" fill="white" fill-opacity="0.83"/>
<path d="M81.4088 27.206L73.7205 7.49337H77.6922L82.3197 19.4084L87.2388 9.60674L92.1578 19.4084L96.7854 7.49337H100.757L93.1052 27.206L87.2024 15.6918L81.4088 27.206Z" fill="white" fill-opacity="0.83"/>
<path d="M107.518 25.9672H103.51V0.460938H107.518V10.8456C108.101 9.82537 110.761 7.52981 114.878 7.52981C121.619 7.52981 123.733 12.4124 123.733 17.7687V25.9672H119.725V18.1695C119.725 14.0521 118.267 10.8821 114.295 10.8821C111.453 10.8821 107.518 12.5946 107.518 18.0238V25.9672Z" fill="white" fill-opacity="0.83"/>
<path d="M126.563 16.7121C126.563 11.6472 131.263 7.45693 137.057 7.45693C142.741 7.45693 147.405 11.7201 147.405 17.0764V18.0967L132.028 16.9307L143.433 15.7282C143.033 13.542 140.701 10.9185 137.203 10.9185C133.486 10.9185 130.352 13.3598 130.352 16.8214C130.352 19.4084 132.903 22.4327 137.203 22.4327C140.336 22.4327 142.085 20.8295 142.85 19.627L146.713 20.3194C145.073 23.7445 141.466 25.9307 137.239 25.9307C131.3 25.9307 126.563 21.8133 126.563 16.7121Z" fill="white" fill-opacity="0.83"/>
<path d="M150.155 16.7121C150.155 11.6472 154.855 7.45693 160.649 7.45693C166.333 7.45693 170.997 11.7201 170.997 17.0764V18.0967L155.62 16.9307L167.025 15.7282C166.624 13.542 164.292 10.9185 160.794 10.9185C157.078 10.9185 153.944 13.3598 153.944 16.8214C153.944 19.4084 156.495 22.4327 160.794 22.4327C163.928 22.4327 165.677 20.8295 166.442 19.627L170.305 20.3194C168.665 23.7445 165.058 25.9307 160.831 25.9307C154.892 25.9307 150.155 21.8133 150.155 16.7121Z" fill="white" fill-opacity="0.83"/>
<path d="M12.7531 1.19141V7.0214H20.0406V14.3089C20.0406 16.8595 20.0406 22.3251 13.1175 22.6895C6.55874 22.6895 5.10125 17.2239 5.10125 14.6733H0C0 21.9608 5.10125 27.7908 13.4819 27.7908C21.8625 27.7908 25.8706 20.8676 25.8706 16.8595V1.19141H12.7531Z" fill="white" fill-opacity="0.83"/>
<rect x="4.375" y="6.28906" width="8.74499" height="8.74499" fill="#D0FF00"/>
</svg>
