<svg width="171" height="28" viewBox="0 0 171 28" fill="none" xmlns="http://www.w3.org/2000/svg">
<path d="M38.8456 25.5062C33.635 25.5062 28.3516 21.8625 28.3516 16.2876C28.3516 10.7126 33.635 7.03243 38.8456 7.03243C44.0561 7.03243 49.3395 10.7126 49.3395 16.2876C49.3395 21.8625 44.0561 25.5062 38.8456 25.5062ZM32.1046 16.2876C32.1046 19.6398 35.3111 22.0082 38.8456 22.0082C42.2342 22.0082 45.5865 19.6762 45.5865 16.2876C45.5865 12.7896 42.2707 10.494 38.8456 10.494C35.3111 10.494 32.1046 12.826 32.1046 16.2876Z" fill="black" fill-opacity="0.83"/>
<path d="M51.8367 0H55.5897V9.80168C56.0634 9.47374 58.2132 6.996 62.2942 6.996C68.4157 6.996 72.8246 11.1863 72.8246 16.1418C72.8246 21.3524 68.0878 25.4698 62.2213 25.4698C56.61 25.4698 51.8731 21.7167 51.8731 16.5426H51.8367V0ZM62.3306 10.3118C58.5047 10.3118 55.5897 12.8989 55.5897 16.3969C55.5897 19.7491 58.5776 21.9718 62.2942 21.9718C66.1566 21.9718 69.108 19.6398 69.108 16.2511C69.108 13.0811 66.2295 10.3118 62.3306 10.3118Z" fill="black" fill-opacity="0.83"/>
<path d="M81.4088 26.7451L73.7205 7.03243H77.6922L82.3197 18.9475L87.2388 9.14581L92.1578 18.9475L96.7854 7.03243H100.757L93.1052 26.7451L87.2024 15.2309L81.4088 26.7451Z" fill="black" fill-opacity="0.83"/>
<path d="M107.518 25.5062H103.51V0H107.518V10.3847C108.101 9.36443 110.761 7.06887 114.878 7.06887C121.619 7.06887 123.733 11.9515 123.733 17.3078V25.5062H119.725V17.7086C119.725 13.5912 118.267 10.4211 114.295 10.4211C111.453 10.4211 107.518 12.1337 107.518 17.5629V25.5062Z" fill="black" fill-opacity="0.83"/>
<path d="M126.563 16.2511C126.563 11.1863 131.263 6.996 137.057 6.996C142.741 6.996 147.405 11.2592 147.405 16.6155V17.6357L132.028 16.4697L143.433 15.2673C143.033 13.0811 140.701 10.4576 137.203 10.4576C133.486 10.4576 130.352 12.8989 130.352 16.3604C130.352 18.9475 132.903 21.9718 137.203 21.9718C140.336 21.9718 142.085 20.3685 142.85 19.1661L146.713 19.8584C145.073 23.2835 141.466 25.4698 137.239 25.4698C131.3 25.4698 126.563 21.3524 126.563 16.2511Z" fill="black" fill-opacity="0.83"/>
<path d="M150.155 16.2511C150.155 11.1863 154.855 6.996 160.649 6.996C166.333 6.996 170.997 11.2592 170.997 16.6155V17.6357L155.62 16.4697L167.025 15.2673C166.624 13.0811 164.292 10.4576 160.794 10.4576C157.078 10.4576 153.944 12.8989 153.944 16.3604C153.944 18.9475 156.495 21.9718 160.794 21.9718C163.928 21.9718 165.677 20.3685 166.442 19.1661L170.305 19.8584C168.665 23.2835 165.058 25.4698 160.831 25.4698C154.892 25.4698 150.155 21.3524 150.155 16.2511Z" fill="black" fill-opacity="0.83"/>
<path d="M12.7531 0.730469V6.56046H20.0406V13.848C20.0406 16.3986 20.0406 21.8642 13.1175 22.2286C6.55874 22.2286 5.10125 16.763 5.10125 14.2123H0C0 21.4998 5.10125 27.3298 13.4819 27.3298C21.8625 27.3298 25.8706 20.4067 25.8706 16.3986V0.730469H12.7531Z" fill="black" fill-opacity="0.83"/>
<rect x="4.375" y="5.82812" width="8.74499" height="8.74499" fill="#D0FF00"/>
</svg>
